<svg width="42" height="42" viewBox="0 0 42 42" fill="none" xmlns="http://www.w3.org/2000/svg">
<rect width="42" height="42" rx="21" fill="url(#paint0_linear_339_5862)"/>
<path d="M16.6267 21C16.6267 18.5838 18.5848 16.6247 21.001 16.6247C23.4171 16.6247 25.3763 18.5838 25.3763 21C25.3763 23.4162 23.4171 25.3753 21.001 25.3753C18.5848 25.3753 16.6267 23.4162 16.6267 21ZM14.2614 21C14.2614 24.7222 17.2787 27.7395 21.001 27.7395C24.7232 27.7395 27.7405 24.7222 27.7405 21C27.7405 17.2778 24.7232 14.2605 21.001 14.2605C17.2787 14.2605 14.2614 17.2778 14.2614 21ZM26.4323 13.9932C26.4322 14.3048 26.5244 14.6093 26.6974 14.8684C26.8704 15.1275 27.1163 15.3294 27.404 15.4487C27.6917 15.5681 28.0084 15.5994 28.314 15.5387C28.6195 15.4781 28.9002 15.3282 29.1206 15.108C29.3409 14.8878 29.491 14.6073 29.5519 14.3018C29.6128 13.9963 29.5818 13.6796 29.4627 13.3917C29.3436 13.1039 29.1418 12.8578 28.8829 12.6847C28.6239 12.5115 28.3194 12.419 28.0079 12.4189H28.0073C27.5898 12.4191 27.1894 12.585 26.8941 12.8802C26.5987 13.1754 26.4327 13.5757 26.4323 13.9932ZM15.6985 31.6834C14.4188 31.6252 13.7233 31.412 13.2611 31.2319C12.6483 30.9934 12.2111 30.7092 11.7514 30.2502C11.2917 29.7911 11.0072 29.3543 10.7697 28.7415C10.5895 28.2795 10.3763 27.5838 10.3182 26.3042C10.2545 24.9207 10.2418 24.5051 10.2418 21.0001C10.2418 17.4951 10.2556 17.0807 10.3182 15.696C10.3764 14.4164 10.5912 13.722 10.7697 13.2587C11.0082 12.6459 11.2924 12.2087 11.7514 11.749C12.2105 11.2893 12.6473 11.0047 13.2611 10.7672C13.7231 10.587 14.4188 10.3739 15.6985 10.3157C17.082 10.2521 17.4975 10.2394 21.001 10.2394C24.5044 10.2394 24.9204 10.2531 26.305 10.3157C27.5847 10.374 28.279 10.5887 28.7424 10.7672C29.3552 11.0047 29.7924 11.2899 30.2521 11.749C30.7118 12.208 30.9953 12.6459 31.2339 13.2587C31.414 13.7207 31.6272 14.4164 31.6854 15.696C31.749 17.0807 31.7617 17.4951 31.7617 21.0001C31.7617 24.5051 31.749 24.9195 31.6854 26.3042C31.6271 27.5838 31.4129 28.2793 31.2339 28.7415C30.9953 29.3543 30.7112 29.7915 30.2521 30.2502C29.793 30.7088 29.3552 30.9934 28.7424 31.2319C28.2804 31.4121 27.5847 31.6253 26.305 31.6834C24.9216 31.7471 24.506 31.7598 21.001 31.7598C17.496 31.7598 17.0815 31.7471 15.6985 31.6834ZM15.5898 7.95448C14.1926 8.01811 13.2378 8.23966 12.404 8.56411C11.5405 8.89917 10.8095 9.34868 10.079 10.078C9.3485 10.8073 8.90015 11.5395 8.56509 12.403C8.24064 13.2373 8.01909 14.1916 7.95546 15.5888C7.89078 16.9883 7.87598 17.4357 7.87598 21C7.87598 24.5643 7.89078 25.0117 7.95546 26.4112C8.01909 27.8085 8.24064 28.7626 8.56509 29.597C8.90015 30.46 9.3486 31.193 10.079 31.922C10.8094 32.651 11.5405 33.0999 12.404 33.4359C13.2394 33.7603 14.1926 33.9819 15.5898 34.0455C16.99 34.1091 17.4366 34.125 21.001 34.125C24.5653 34.125 25.0127 34.1102 26.4121 34.0455C27.8095 33.9819 28.7636 33.7603 29.598 33.4359C30.4609 33.0999 31.1925 32.6513 31.923 31.922C32.6535 31.1927 33.1009 30.46 33.4369 29.597C33.7613 28.7626 33.9839 27.8084 34.0465 26.4112C34.1101 25.0107 34.1249 24.5643 34.1249 21C34.1249 17.4357 34.1101 16.9883 34.0465 15.5888C33.9829 14.1915 33.7613 13.2368 33.4369 12.403C33.1009 11.54 32.6523 10.8085 31.923 10.078C31.1936 9.34752 30.461 8.89917 29.599 8.56411C28.7636 8.23966 27.8094 8.01707 26.4132 7.95448C25.0138 7.89086 24.5664 7.875 21.002 7.875C17.4377 7.875 16.99 7.88981 15.5898 7.95448Z" fill="white"/>
<defs>
<linearGradient id="paint0_linear_339_5862" x1="42" y1="0" x2="5.00679e-06" y2="42" gradientUnits="userSpaceOnUse">
<stop stop-color="#CD3AA1"/>
<stop offset="0.28125" stop-color="#E64770"/>
<stop offset="0.53125" stop-color="#FD5341"/>
<stop offset="0.75" stop-color="#FF7744"/>
<stop offset="1" stop-color="#FFCE52"/>
</linearGradient>
</defs>
</svg>
