<svg width="42" height="42" viewBox="0 0 42 42" fill="none" xmlns="http://www.w3.org/2000/svg">
<rect width="42" height="42" rx="21" fill="#0DC143"/>
<path d="M30.4071 11.5601C28.1558 9.24248 25.0436 7.98438 21.8652 7.98438C15.1112 7.98438 9.68145 13.4803 9.74767 20.1682C9.74767 22.2871 10.3436 24.3398 11.3369 26.1938L9.61523 32.4844L16.0382 30.829C17.826 31.8222 19.8125 32.2857 21.799 32.2857C28.4869 32.2857 33.9166 26.7898 33.9166 20.1019C33.9166 16.8573 32.6585 13.8114 30.4071 11.5601ZM21.8652 30.233C20.0774 30.233 18.2896 29.7695 16.7666 28.8425L16.3693 28.6438L12.5287 29.6371L13.522 25.8628L13.2571 25.4655C10.3436 20.7641 11.7342 14.5398 16.5017 11.6263C21.2693 8.71275 27.4274 10.1033 30.3409 14.8709C33.2544 19.6384 31.8639 25.7965 27.0963 28.7101C25.5733 29.7033 23.7193 30.233 21.8652 30.233ZM27.6923 22.883L26.9639 22.5519C26.9639 22.5519 25.9044 22.0884 25.2423 21.7573C25.176 21.7573 25.1098 21.6911 25.0436 21.6911C24.845 21.6911 24.7125 21.7573 24.5801 21.8236C24.5801 21.8236 24.5139 21.8898 23.5869 22.9492C23.5206 23.0817 23.3882 23.1479 23.2558 23.1479H23.1896C23.1233 23.1479 22.9909 23.0817 22.9247 23.0155L22.5936 22.883C21.8652 22.5519 21.2031 22.1546 20.6733 21.6249C20.5409 21.4925 20.3423 21.3601 20.2098 21.2276C19.7463 20.7641 19.2828 20.2344 18.9517 19.6384L18.8855 19.506C18.8193 19.4398 18.8193 19.3736 18.7531 19.2411C18.7531 19.1087 18.7531 18.9763 18.8193 18.9101C18.8193 18.9101 19.0842 18.579 19.2828 18.3803C19.4152 18.2479 19.4815 18.0492 19.6139 17.9168C19.7463 17.7182 19.8125 17.4533 19.7463 17.2546C19.6801 16.9236 18.8855 15.1357 18.6869 14.7384C18.5544 14.5398 18.422 14.4736 18.2233 14.4073H18.0247C17.8923 14.4073 17.6936 14.4073 17.495 14.4073C17.3625 14.4073 17.2301 14.4736 17.0977 14.4736L17.0315 14.5398C16.899 14.606 16.7666 14.7384 16.6342 14.8046C16.5017 14.9371 16.4355 15.0695 16.3031 15.2019C15.8396 15.7979 15.5747 16.5263 15.5747 17.2546C15.5747 17.7844 15.7071 18.3141 15.9058 18.7776L15.972 18.9763C16.5679 20.2344 17.3625 21.3601 18.422 22.3533L18.6869 22.6182C18.8855 22.8168 19.0842 22.9492 19.2166 23.1479C20.6071 24.3398 22.1963 25.2006 23.9842 25.6641C24.1828 25.7303 24.4477 25.7303 24.6463 25.7965C24.845 25.7965 25.1098 25.7965 25.3085 25.7965C25.6396 25.7965 26.0369 25.6641 26.3017 25.5317C26.5004 25.3992 26.6328 25.3992 26.7652 25.2668L26.8977 25.1344C27.0301 25.0019 27.1625 24.9357 27.295 24.8033C27.4274 24.6709 27.5598 24.5384 27.626 24.406C27.7585 24.1411 27.8247 23.8101 27.8909 23.479C27.8909 23.3465 27.8909 23.1479 27.8909 23.0155C27.8909 23.0155 27.8247 22.9492 27.6923 22.883Z" fill="white"/>
</svg>
