<svg width="135" height="23" viewBox="0 0 135 23" fill="none" xmlns="http://www.w3.org/2000/svg">
<g clip-path="url(#clip0_932_745)">
<path d="M9.82155 3.69914C8.85445 3.27687 7.74837 3.06854 6.5033 3.06854H0V19.9315H3.2198V13.693H6.42802C7.80628 13.693 8.98185 13.4847 9.94895 13.0737C10.9161 12.6627 11.6515 12.0602 12.1611 11.272C12.6707 10.4837 12.9255 9.52656 12.9255 8.39486C12.9255 7.26316 12.6534 6.32289 12.1032 5.52901C11.5531 4.73513 10.7944 4.12705 9.82734 3.70477L9.82155 3.69914ZM8.83129 10.4049C8.25219 10.8215 7.44724 11.0299 6.41644 11.0299H3.2198V5.79363H6.4396C7.42986 5.79363 8.22323 6.01885 8.81392 6.46365C9.4046 6.90844 9.69994 7.57283 9.69994 8.45679C9.69994 9.34076 9.41039 9.98825 8.83129 10.4105V10.4049Z" fill="#292D3F"/>
<path d="M19.1161 3.06854H15.8963V19.9315H26.4765V17.0656H19.1161V3.06854Z" fill="#292D3F"/>
<path d="M34.1785 3.06854L27.5247 19.9315H31.0572L32.4818 16.1141H39.4541L40.9309 19.9315H44.5618L37.7748 3.06854H34.1843H34.1785ZM33.2751 13.4509L35.9158 6.61004L38.6434 13.4509H33.2809H33.2751Z" fill="#292D3F"/>
<path d="M45.3668 5.93439H50.1617V19.9315H53.3989V5.93439H58.1881V3.06854H45.3668V5.93439Z" fill="#292D3F"/>
<path d="M60.9793 19.9315H64.1991V13.1018H71.1715V10.3317H64.1991V5.93439H71.9301V3.06854H60.9793V19.9315Z" fill="#292D3F"/>
<path d="M110.66 11.8969C111.286 11.4803 111.772 10.951 112.131 10.3204C112.485 9.68421 112.664 8.95226 112.664 8.11334C112.664 7.07173 112.415 6.17087 111.923 5.4164C111.425 4.66193 110.724 4.08201 109.815 3.67662C108.906 3.27124 107.834 3.06854 106.607 3.06854H99.8949V19.9315H103.115V13.3327H105.194L109.676 19.9315H113.539L108.495 12.7753C109.311 12.6064 110.035 12.3136 110.655 11.8969H110.66ZM103.109 10.7652V5.69229H106.294C107.319 5.69229 108.095 5.91187 108.622 6.35667C109.149 6.79584 109.415 7.44333 109.415 8.28225C109.415 9.12117 109.126 9.71236 108.547 10.129C107.968 10.5513 107.163 10.7596 106.132 10.7596H103.109V10.7652Z" fill="#292D3F"/>
<path d="M131.931 3.06854L125.92 13.0568L119.648 3.06854H116.544V19.9315H119.492L119.445 8.22032L124.646 16.4519H126.91L131.913 8.33856L131.867 19.9315H135V3.06854H131.931Z" fill="#292D3F"/>
<path d="M89.6101 18.9236C89.7664 18.6702 89.9112 18.4 90.0502 18.1241C88.614 18.4732 87.0678 18.659 85.4695 18.659C83.8712 18.659 82.3192 18.4732 80.8888 18.1241C81.0278 18.4 81.1726 18.6646 81.3289 18.9236C82.464 20.7872 83.9349 21.812 85.4753 21.812C87.0157 21.812 88.4808 20.7872 89.6217 18.9236H89.6101Z" fill="#292D3F"/>
<path d="M93.102 15.5285C95.0189 14.425 96.0728 12.9949 96.0728 11.4972C96.0728 9.99953 95.0189 8.57505 93.102 7.46587C92.8415 7.31385 92.5635 7.17309 92.2797 7.03796C92.6388 8.43429 92.8299 9.9376 92.8299 11.4916C92.8299 13.0456 92.6388 14.5545 92.2797 15.9452C92.5635 15.8101 92.8357 15.6693 93.102 15.5173V15.5285Z" fill="#292D3F"/>
<path d="M86.5582 0C88.1681 0.365973 89.6448 1.53709 90.7799 3.40073C91.1505 4.00881 91.469 4.68446 91.747 5.39388C92.4766 5.66414 93.1658 5.97381 93.797 6.33415C95.7196 7.4377 96.9183 8.87344 97.2947 10.4387C96.7735 4.90404 92.2508 0.506732 86.5582 0Z" fill="#292D3F"/>
<path d="M85.4637 1.18799C83.9291 1.18799 82.4582 2.21271 81.3173 4.07636C81.161 4.32973 81.0162 4.59998 80.8772 4.87587C82.3134 4.52679 83.8596 4.34099 85.4579 4.34099C87.0562 4.34099 88.6082 4.52679 90.0386 4.87587C89.8996 4.59998 89.7548 4.33536 89.5985 4.07636C88.4634 2.21271 86.9925 1.18799 85.4521 1.18799H85.4637Z" fill="#292D3F"/>
<path d="M80.246 6.42985C79.7306 7.96131 79.4584 9.69546 79.4584 11.5028C79.4584 13.3101 79.7364 15.0443 80.246 16.5758C81.8212 17.0769 83.6048 17.3415 85.4637 17.3415C87.3226 17.3415 89.1062 17.0712 90.6814 16.5758C91.1968 15.0443 91.469 13.3101 91.469 11.5028C91.469 9.69546 91.191 7.96131 90.6814 6.42985C89.1062 5.92875 87.3226 5.66412 85.4637 5.66412C83.6048 5.66412 81.8212 5.93438 80.246 6.42985Z" fill="#292D3F"/>
<path d="M80.1476 19.5993C79.7769 18.9912 79.4584 18.3156 79.1805 17.6061C78.4508 17.3359 77.7617 17.0262 77.1305 16.6659C75.2078 15.5623 74.0091 14.1266 73.6327 12.5613C74.1539 18.096 78.6767 22.4933 84.3692 23C82.7593 22.634 81.2826 21.4629 80.1476 19.5993Z" fill="#292D3F"/>
<path d="M77.1362 6.33415C77.7617 5.97381 78.4566 5.66414 79.1863 5.39388C79.4642 4.68446 79.7827 4.01444 80.1534 3.40073C81.2884 1.53146 82.7651 0.365973 84.375 0C78.6824 0.506732 74.1597 4.90404 73.6385 10.4387C74.0149 8.87344 75.2194 7.4377 77.1362 6.33415Z" fill="#292D3F"/>
<path d="M93.797 16.6659C93.1715 17.0262 92.4766 17.3359 91.747 17.6061C91.469 18.3156 91.1505 18.9856 90.7799 19.5993C89.6448 21.4686 88.1681 22.634 86.5582 23C92.2508 22.4933 96.7735 18.096 97.2947 12.5613C96.9183 14.1266 95.7138 15.5623 93.797 16.6659Z" fill="#292D3F"/>
<path d="M77.8312 7.47146C75.9143 8.57501 74.8604 10.0051 74.8604 11.5028C74.8604 13.0005 75.9143 14.4249 77.8312 15.5341C78.0918 15.6861 78.3697 15.8269 78.6535 15.962C78.2945 14.5657 78.1033 13.0624 78.1033 11.5084C78.1033 9.95444 78.2945 8.44551 78.6535 7.05481C78.3697 7.18994 78.0976 7.3307 77.8312 7.48272V7.47146Z" fill="#292D3F"/>
</g>
<defs>
<clipPath id="clip0_932_745">
<rect width="135" height="23" fill="white"/>
</clipPath>
</defs>
</svg>
